<svg width="24" height="24" viewBox="0 0 24 24" fill="none" xmlns="http://www.w3.org/2000/svg">
<path d="M5.69775 21.1495C5.45612 21.1495 5.2545 21.0677 5.0929 20.904C4.93132 20.7403 4.85052 20.5383 4.85052 20.2979V4.70223C4.85052 4.46183 4.93236 4.2588 5.09602 4.09313C5.25971 3.92745 5.46175 3.8446 5.70215 3.8446H13.0168C13.2157 3.8446 13.3929 3.90775 13.5484 4.03403C13.7038 4.1603 13.8002 4.32705 13.8375 4.5343L14.1755 5.9946H19.2978C19.5382 5.9946 19.7412 6.07745 19.9069 6.24313C20.0726 6.4088 20.1554 6.61183 20.1554 6.85223V14.6979C20.1554 14.9383 20.0726 15.1403 19.9069 15.304C19.7412 15.4677 19.5382 15.5495 19.2978 15.5495H14.1581C13.9592 15.5495 13.782 15.4915 13.6266 15.3756C13.4712 15.2597 13.3748 15.0981 13.3375 14.8908L12.9994 13.4245H6.55378V20.2979C6.55378 20.5383 6.47152 20.7403 6.307 20.904C6.14248 21.0677 5.9394 21.1495 5.69775 21.1495ZM14.9228 13.8463H18.4462V7.70385H12.7271L12.2522 5.55385H6.55378V11.7213H14.4478L14.9228 13.8463Z" fill="#1F1F1F"/>
</svg>
