<svg width="20" height="21" viewBox="0 0 20 21" fill="none" xmlns="http://www.w3.org/2000/svg">
<path d="M6.50002 1.88574H13.5C16.1667 1.88574 18.3334 4.05241 18.3334 6.71908V13.7191C18.3334 15.001 17.8241 16.2303 16.9177 17.1368C16.0113 18.0432 14.7819 18.5524 13.5 18.5524H6.50002C3.83335 18.5524 1.66669 16.3857 1.66669 13.7191V6.71908C1.66669 5.4372 2.17591 4.20782 3.08234 3.30139C3.98876 2.39497 5.21814 1.88574 6.50002 1.88574ZM6.33335 3.55241C5.5377 3.55241 4.77464 3.86848 4.21203 4.43109C3.64942 4.9937 3.33335 5.75676 3.33335 6.55241V13.8857C3.33335 15.5441 4.67502 16.8857 6.33335 16.8857H13.6667C14.4623 16.8857 15.2254 16.5697 15.788 16.0071C16.3506 15.4445 16.6667 14.6814 16.6667 13.8857V6.55241C16.6667 4.89408 15.325 3.55241 13.6667 3.55241H6.33335ZM14.375 4.80241C14.6513 4.80241 14.9162 4.91216 15.1116 5.10751C15.3069 5.30286 15.4167 5.56781 15.4167 5.84408C15.4167 6.12034 15.3069 6.38529 15.1116 6.58065C14.9162 6.776 14.6513 6.88574 14.375 6.88574C14.0988 6.88574 13.8338 6.776 13.6384 6.58065C13.4431 6.38529 13.3334 6.12034 13.3334 5.84408C13.3334 5.56781 13.4431 5.30286 13.6384 5.10751C13.8338 4.91216 14.0988 4.80241 14.375 4.80241ZM10 6.05241C11.1051 6.05241 12.1649 6.4914 12.9463 7.2728C13.7277 8.0542 14.1667 9.11401 14.1667 10.2191C14.1667 11.3241 13.7277 12.384 12.9463 13.1654C12.1649 13.9468 11.1051 14.3857 10 14.3857C8.89495 14.3857 7.83514 13.9468 7.05374 13.1654C6.27234 12.384 5.83335 11.3241 5.83335 10.2191C5.83335 9.11401 6.27234 8.0542 7.05374 7.2728C7.83514 6.4914 8.89495 6.05241 10 6.05241ZM10 7.71908C9.33698 7.71908 8.70109 7.98247 8.23225 8.45131C7.76341 8.92015 7.50002 9.55603 7.50002 10.2191C7.50002 10.8821 7.76341 11.518 8.23225 11.9868C8.70109 12.4557 9.33698 12.7191 10 12.7191C10.6631 12.7191 11.2989 12.4557 11.7678 11.9868C12.2366 11.518 12.5 10.8821 12.5 10.2191C12.5 9.55603 12.2366 8.92015 11.7678 8.45131C11.2989 7.98247 10.6631 7.71908 10 7.71908Z" fill="#1F1F1F"/>
</svg>
