<svg width="24" height="24" viewBox="0 0 24 24" fill="none" xmlns="http://www.w3.org/2000/svg">
<path d="M11.9998 22.5234C11.4039 22.5234 10.8968 22.3103 10.4785 21.884C10.0602 21.4577 9.8574 20.9366 9.87008 20.3207H14.1299C14.1426 20.9366 13.9397 21.4577 13.5212 21.884C13.1028 22.3103 12.5956 22.5234 11.9998 22.5234ZM8.68055 18.894C8.41444 18.894 8.1958 18.8047 8.02465 18.626C7.85349 18.4473 7.76791 18.2334 7.76791 17.9845C7.76791 17.73 7.85391 17.5177 8.02593 17.3478C8.19793 17.1779 8.41627 17.0929 8.68096 17.0929H15.35C15.5967 17.0929 15.8054 17.1791 15.9761 17.3515C16.1467 17.5239 16.2321 17.7361 16.2321 17.988C16.2321 18.2399 16.1467 18.4538 15.9761 18.6299C15.8054 18.806 15.5967 18.894 15.35 18.894H8.68055ZM7.944 15.6913C6.76067 14.9333 5.82135 13.9768 5.12605 12.8217C4.43077 11.6666 4.08313 10.3758 4.08313 8.94947C4.08313 6.80299 4.86558 4.94688 6.43048 3.38117C7.99538 1.81545 9.85276 1.03259 12.0026 1.03259C14.1525 1.03259 16.01 1.81545 17.5751 3.38117C19.1402 4.94688 19.9228 6.80298 19.9228 8.94944C19.9228 10.3699 19.5803 11.6591 18.8954 12.8172C18.2104 13.9753 17.2639 14.9333 16.056 15.6913H7.944ZM8.6251 13.7587H15.3933C16.1824 13.2263 16.8115 12.5368 17.2806 11.6903C17.7497 10.8438 17.9842 9.932 17.9842 8.95502C17.9842 7.30857 17.3966 5.89965 16.2213 4.72827C15.046 3.5569 13.6379 2.97122 11.9971 2.97122C10.3563 2.97122 8.94917 3.55523 7.7758 4.72327C6.60242 5.89128 6.01573 7.29972 6.01573 8.94857C6.01573 9.92694 6.25124 10.8399 6.72225 11.6874C7.19327 12.535 7.82755 13.2254 8.6251 13.7587V13.7587Z" fill="#F4AB00"/>
</svg>
