<svg width="24" height="24" viewBox="0 0 24 24" fill="none" xmlns="http://www.w3.org/2000/svg">
<path d="M6.20005 16.6674C7.09282 16.6674 7.96184 16.7716 8.80712 16.9799C9.65241 17.1882 10.4834 17.5007 11.3 17.9174V7.2424C10.55 6.7424 9.73656 6.3549 8.85957 6.0799C7.98261 5.8049 7.0961 5.6674 6.20005 5.6674C5.56672 5.6674 4.94588 5.74657 4.33755 5.9049C3.72922 6.06323 3.11672 6.25907 2.50005 6.4924V17.3424C3.01672 17.1091 3.60422 16.9382 4.26255 16.8299C4.92088 16.7216 5.56672 16.6674 6.20005 16.6674ZM12.8 17.9174C13.6334 17.5007 14.4501 17.1882 15.2501 16.9799C16.05 16.7716 16.9001 16.6674 17.8001 16.6674C18.4334 16.6674 19.0876 16.7174 19.7626 16.8174C20.4376 16.9174 21.0167 17.0507 21.5001 17.2174V6.4924C20.9334 6.20508 20.3349 5.99575 19.7045 5.8644C19.0741 5.73307 18.4393 5.6674 17.8001 5.6674C16.9001 5.6674 16.0292 5.8049 15.1876 6.0799C14.3459 6.3549 13.55 6.7424 12.8 7.2424V17.9174ZM12.065 20.0419C11.9389 20.0419 11.8154 20.0294 11.6945 20.0044C11.5736 19.9794 11.4674 19.9315 11.3761 19.8609C10.5968 19.3775 9.76869 19.0006 8.89182 18.7299C8.01496 18.4593 7.1177 18.3239 6.20005 18.3239C5.60063 18.3239 5.01192 18.3999 4.4339 18.5519C3.8559 18.7039 3.27922 18.8843 2.70385 19.093C2.279 19.3002 1.8659 19.2769 1.46455 19.023C1.06322 18.7691 0.862549 18.4002 0.862549 17.9163V6.34728C0.862549 6.05743 0.928849 5.7908 1.06145 5.5474C1.19407 5.30398 1.39298 5.11518 1.6582 4.98098C2.36617 4.64964 3.10043 4.4073 3.861 4.25395C4.62157 4.1006 5.39716 4.02393 6.18777 4.02393C7.24197 4.02393 8.2659 4.16658 9.25955 4.4519C10.2532 4.73723 11.1834 5.17555 12.05 5.76685C12.9001 5.17954 13.8135 4.74222 14.7906 4.4549C15.7675 4.16758 16.7748 4.02393 17.8123 4.02393C18.5972 4.02393 19.3672 4.10209 20.1223 4.25843C20.8774 4.41476 21.6089 4.65561 22.3169 4.98098C22.5821 5.11518 22.7852 5.30398 22.9262 5.5474C23.0671 5.7908 23.1376 6.05743 23.1376 6.34728V17.9821C23.1376 18.483 22.9291 18.8577 22.5123 19.1062C22.0954 19.3546 21.6818 19.3502 21.2713 19.093C20.7126 18.8676 20.1442 18.6831 19.5663 18.5394C18.9884 18.3958 18.3998 18.3239 17.8005 18.3239C16.8996 18.3239 16.0229 18.4602 15.1705 18.7329C14.3181 19.0055 13.5106 19.3815 12.7479 19.8609C12.6606 19.9315 12.5564 19.9794 12.4355 20.0044C12.3145 20.0294 12.191 20.0419 12.065 20.0419Z" fill="#F4AB00"/>
</svg>
