<svg width="24" height="24" viewBox="0 0 24 24" fill="none" xmlns="http://www.w3.org/2000/svg">
<path d="M17.2405 14.5647C16.5526 14.5647 15.9715 14.3276 15.4973 13.8533C15.023 13.3791 14.7859 12.798 14.7859 12.1101C14.7859 11.4222 15.023 10.8411 15.4973 10.3669C15.9715 9.8926 16.5526 9.65546 17.2405 9.65546C17.9284 9.65546 18.5094 9.8926 18.9837 10.3669C19.458 10.8411 19.6951 11.4222 19.6951 12.1101C19.6951 12.798 19.458 13.3791 18.9837 13.8533C18.5094 14.3276 17.9284 14.5647 17.2405 14.5647ZM13.0875 20.2272C12.8471 20.2272 12.645 20.1454 12.4814 19.9817C12.3177 19.818 12.2359 19.616 12.2359 19.3756V18.853C12.2359 18.3956 12.3335 18.0043 12.5288 17.6794C12.7241 17.3544 12.9964 17.1026 13.3456 16.924C13.9663 16.6073 14.5987 16.374 15.243 16.224C15.8872 16.074 16.5535 15.999 17.2419 15.999C17.9302 15.999 18.5941 16.0698 19.2334 16.2115C19.8727 16.3531 20.5047 16.5906 21.1293 16.924C21.4786 17.0859 21.7519 17.334 21.9492 17.6683C22.1465 18.0026 22.2451 18.3967 22.2451 18.8506V19.3756C22.2451 19.616 22.1621 19.818 21.9962 19.9817C21.8303 20.1454 21.6274 20.2272 21.3875 20.2272H13.0875ZM9.90909 11.8973C8.76444 11.8973 7.82857 11.5338 7.10149 10.8067C6.37441 10.0796 6.01086 9.14373 6.01086 7.99906C6.01086 6.85441 6.37441 5.91814 7.10149 5.19024C7.82857 4.46234 8.76444 4.09839 9.90909 4.09839C11.0537 4.09839 11.991 4.46234 12.7209 5.19024C13.4508 5.91814 13.8157 6.85441 13.8157 7.99906C13.8157 9.14373 13.4508 10.0796 12.7209 10.8067C11.991 11.5338 11.0537 11.8973 9.90909 11.8973ZM2.61249 20.2272C2.37209 20.2272 2.17005 20.1454 2.00636 19.9817C1.8427 19.818 1.76086 19.616 1.76086 19.3756V17.7457C1.76086 17.1312 1.90851 16.5725 2.20379 16.0696C2.49907 15.5667 2.93567 15.1891 3.51359 14.9366C4.65887 14.4271 5.75014 14.0473 6.78739 13.7973C7.82464 13.5473 8.86643 13.4223 9.91276 13.4223C10.3238 13.4223 10.724 13.439 11.1133 13.4723C11.5026 13.5056 11.802 13.5453 12.0114 13.5913V14.5974C11.8571 14.6795 11.7274 14.7636 11.6223 14.8497C11.5172 14.9358 11.4147 15.0468 11.3147 15.1826C11.1139 15.1573 10.8975 15.1424 10.6655 15.1381C10.4334 15.1337 10.1823 15.1316 9.91204 15.1316C8.97507 15.1316 8.06102 15.2244 7.16987 15.4101C6.27872 15.5958 5.31013 15.943 4.26411 16.4517C4.03078 16.5683 3.83911 16.7498 3.68911 16.9961C3.53911 17.2424 3.46411 17.4908 3.46411 17.7414V18.524H10.7359V20.2272H2.61249ZM9.90909 10.1941C10.544 10.1941 11.0689 9.98685 11.484 9.57241C11.899 9.158 12.1065 8.63321 12.1065 7.99806C12.1065 7.36128 11.8994 6.83602 11.4852 6.42229C11.0709 6.00854 10.5464 5.80166 9.91154 5.80166C9.27667 5.80166 8.75172 6.00863 8.33667 6.42256C7.92163 6.83648 7.71412 7.36066 7.71412 7.99511C7.71412 8.6312 7.92123 9.15671 8.33546 9.57164C8.74968 9.98659 9.27422 10.1941 9.90909 10.1941Z" fill="#1F1F1F"/>
</svg>
