<svg width="24" height="24" viewBox="0 0 24 24" fill="none" xmlns="http://www.w3.org/2000/svg">
<path d="M21.4642 20.5158V4.29077H2.53592V12.4343H0.832667V4.29077C0.832667 3.81821 0.999442 3.41619 1.33299 3.08472C1.66652 2.75326 2.0675 2.58752 2.53592 2.58752H21.4642C21.9342 2.58752 22.3366 2.7543 22.6713 3.08785C23.0061 3.4214 23.1734 3.82237 23.1734 4.29077V18.6891C23.1734 19.1521 23.0108 19.5566 22.6856 19.9026C22.3603 20.2487 21.9532 20.4531 21.4642 20.5158ZM8.97492 13.999C7.83027 13.999 6.89539 13.6354 6.17029 12.9083C5.44519 12.1812 5.08264 11.2453 5.08264 10.1007C5.08264 8.95605 5.44519 8.01977 6.17029 7.29187C6.89539 6.56397 7.83027 6.20002 8.97492 6.20002C10.1196 6.20002 11.0568 6.56397 11.7867 7.29187C12.5166 8.01977 12.8816 8.95605 12.8816 10.1007C12.8816 11.2453 12.5166 12.1812 11.7867 12.9083C11.0568 13.6354 10.1196 13.999 8.97492 13.999ZM8.97612 12.2957C9.61437 12.2957 10.14 12.0886 10.5529 11.6743C10.9658 11.2601 11.1723 10.7356 11.1723 10.1007C11.1723 9.46583 10.9659 8.94187 10.553 8.52882C10.1401 8.11579 9.61552 7.90927 8.97932 7.90927C8.34313 7.90927 7.81852 8.11582 7.40547 8.5289C6.99243 8.942 6.78592 9.46519 6.78592 10.0985C6.78592 10.7334 6.99256 11.2583 7.40584 11.6733C7.81914 12.0882 8.34257 12.2957 8.97612 12.2957ZM0.832642 22.3288V19.8186C0.832642 19.1592 0.99795 18.5919 1.32857 18.1167C1.65918 17.6414 2.08645 17.2832 2.61037 17.0419C3.735 16.5339 4.81574 16.1539 5.85259 15.9019C6.88946 15.6499 7.93067 15.524 8.97622 15.524C10.0294 15.524 11.0703 15.6541 12.099 15.9144C13.1276 16.1748 14.2016 16.5502 15.3209 17.0408C15.8705 17.2842 16.3096 17.6425 16.6384 18.1157C16.9672 18.589 17.1316 19.1561 17.1316 19.8171V22.3288H0.832642ZM2.53592 20.6256H15.4223V19.8413C15.4223 19.5825 15.3431 19.3319 15.1848 19.0894C15.0265 18.8469 14.8304 18.668 14.5966 18.5528C13.5508 18.0502 12.5907 17.7047 11.7162 17.5161C10.8418 17.3275 9.92797 17.2332 8.97484 17.2332C8.02844 17.2332 7.10953 17.327 6.21812 17.5147C5.32672 17.7024 4.36683 18.0483 3.33847 18.5524C3.10343 18.6679 2.91092 18.8469 2.76092 19.0894C2.61092 19.3319 2.53592 19.5825 2.53592 19.8413V20.6256Z" fill="#F4AB00"/>
</svg>
