<svg width="24" height="24" viewBox="0 0 24 24" fill="none" xmlns="http://www.w3.org/2000/svg">
<path d="M11.9974 11.8348C12.5013 11.8348 12.9335 11.6554 13.294 11.2966C13.6545 10.9377 13.8348 10.5064 13.8348 10.0025C13.8348 9.49867 13.6554 9.06648 13.2966 8.70597C12.9377 8.34547 12.5064 8.16522 12.0025 8.16522C11.4987 8.16522 11.0665 8.34461 10.706 8.70341C10.3455 9.06223 10.1652 9.49357 10.1652 9.99744C10.1652 10.5013 10.3446 10.9335 10.7034 11.294C11.0622 11.6545 11.4936 11.8348 11.9974 11.8348ZM12 19.7C14.1352 17.7461 15.7123 15.9739 16.7313 14.3836C17.7503 12.7932 18.2598 11.3972 18.2598 10.1954C18.2598 8.30399 17.6558 6.75526 16.448 5.54924C15.2401 4.34322 13.7585 3.74022 12.0032 3.74022C10.2479 3.74022 8.76522 4.34352 7.55522 5.55012C6.34522 6.7567 5.74022 8.30617 5.74022 10.1985C5.74022 11.4024 6.26232 12.7972 7.30652 14.3828C8.35072 15.9685 9.91521 17.7409 12 19.7ZM12.009 21.8837C11.8559 21.8837 11.7081 21.86 11.5657 21.8125C11.4234 21.765 11.2964 21.6938 11.1848 21.5989C8.69202 19.3878 6.83132 17.3426 5.60269 15.4633C4.37407 13.5841 3.75977 11.8296 3.75977 10.2C3.75977 7.62676 4.58795 5.57674 6.24432 4.04994C7.90068 2.52316 9.81881 1.75977 11.9987 1.75977C14.1786 1.75977 16.0971 2.52316 17.7544 4.04994C19.4116 5.57674 20.2402 7.62676 20.2402 10.2C20.2402 11.8261 19.6259 13.5796 18.3973 15.4607C17.1687 17.3417 15.308 19.3878 12.8152 21.5989C12.7036 21.6938 12.5796 21.765 12.4432 21.8125C12.3068 21.86 12.1621 21.8837 12.009 21.8837Z" fill="#F4AB00"/>
</svg>
