<svg width="24" height="24" viewBox="0 0 24 24" fill="none" xmlns="http://www.w3.org/2000/svg">
<path d="M11.9957 20.8887C11.7253 20.8887 11.4647 20.827 11.2138 20.7037C10.9629 20.5804 10.7525 20.3852 10.5826 20.118L2.73533 8.26256C2.47011 7.86472 2.37681 7.42541 2.45543 6.94463C2.53406 6.46383 2.76196 6.09281 3.13913 5.83158C4.4511 4.90223 5.85777 4.17206 7.35916 3.64108C8.86054 3.1101 10.4075 2.8446 12 2.8446C13.5925 2.8446 15.1395 3.1091 16.6409 3.6381C18.1422 4.16709 19.5489 4.89625 20.8609 5.8256C21.2416 6.0849 21.4704 6.45643 21.5473 6.94018C21.6241 7.42393 21.5299 7.86472 21.2647 8.26256L13.4234 20.118C13.2495 20.3749 13.0356 20.5675 12.7819 20.696C12.5281 20.8244 12.266 20.8887 11.9957 20.8887ZM12 19.2294L19.9473 7.24898C18.7513 6.48158 17.4845 5.84055 16.1471 5.32588C14.8097 4.8112 13.427 4.55385 11.9992 4.55385C10.565 4.55385 9.18 4.81074 7.84413 5.32451C6.50828 5.83826 5.24647 6.47975 4.05871 7.24898L12 19.2294ZM9.19696 9.92288C9.59174 9.92288 9.92446 9.7863 10.1951 9.51315C10.4658 9.23999 10.6011 8.90602 10.6011 8.51125C10.6011 8.11647 10.4655 7.78275 10.1944 7.5101C9.92319 7.23745 9.59021 7.10113 9.19543 7.10113C8.80065 7.10113 8.46694 7.23771 8.1943 7.51088C7.92166 7.78403 7.78533 8.118 7.78533 8.51278C7.78533 8.90756 7.92191 9.24127 8.19506 9.51391C8.46822 9.78656 8.80219 9.92288 9.19696 9.92288ZM12.0008 15.2142C12.3955 15.2142 12.7293 15.0786 13.0019 14.8074C13.2746 14.5363 13.4109 14.2033 13.4109 13.8085C13.4109 13.4137 13.2743 13.08 13.0011 12.8074C12.728 12.5347 12.394 12.3984 11.9992 12.3984C11.6045 12.3984 11.2708 12.535 10.9981 12.8082C10.7255 13.0813 10.5891 13.4153 10.5891 13.8101C10.5891 14.2048 10.7257 14.5376 10.9989 14.8082C11.272 15.0789 11.606 15.2142 12.0008 15.2142Z" fill="#1F1F1F"/>
</svg>
