<svg width="24" height="24" viewBox="0 0 24 24" fill="none" xmlns="http://www.w3.org/2000/svg">
<path d="M10.6484 14.3517V15.5C10.6484 15.8755 10.7801 16.1946 11.0435 16.4574C11.3069 16.7203 11.6267 16.8517 12.003 16.8517C12.3793 16.8517 12.6981 16.7203 12.9595 16.4574C13.221 16.1946 13.3517 15.8755 13.3517 15.5V14.3517H14.5C14.8755 14.3517 15.1946 14.22 15.4574 13.9566C15.7203 13.6932 15.8517 13.3734 15.8517 12.9971C15.8517 12.6208 15.7203 12.302 15.4574 12.0405C15.1946 11.7791 14.8755 11.6484 14.5 11.6484H13.3517V10.5C13.3517 10.1246 13.22 9.80546 12.9566 9.54264C12.6932 9.27983 12.3734 9.14842 11.9971 9.14842C11.6208 9.14842 11.302 9.27983 11.0405 9.54264C10.7791 9.80546 10.6484 10.1246 10.6484 10.5V11.6484H9.50004C9.12459 11.6484 8.80545 11.7801 8.54264 12.0435C8.27982 12.3069 8.14841 12.6267 8.14841 13.003C8.14841 13.3793 8.27982 13.6981 8.54264 13.9595C8.80545 14.221 9.12459 14.3517 9.50004 14.3517H10.6484ZM5.55384 21.1495C5.08135 21.1495 4.67935 20.9837 4.34784 20.6522C4.01634 20.3207 3.85059 19.9187 3.85059 19.4462V9.77397C3.85059 9.50543 3.91003 9.25103 4.02891 9.01077C4.14781 8.7705 4.31427 8.57109 4.52829 8.41254L10.9745 3.57342C11.2717 3.34552 11.6122 3.23157 11.996 3.23157C12.3799 3.23157 12.7231 3.34552 13.0256 3.57342L19.4718 8.41254C19.6877 8.57109 19.8556 8.7705 19.9756 9.01077C20.0955 9.25103 20.1555 9.50543 20.1555 9.77397V19.4462C20.1555 19.9187 19.9891 20.3207 19.6564 20.6522C19.3238 20.9837 18.9204 21.1495 18.4462 21.1495H5.55384ZM5.55384 19.4462H18.4462V9.67397L12 4.99079L5.55384 9.67594V19.4462Z" fill="#1F1F1F"/>
</svg>
